<svg width="208" height="50" viewBox="0 0 208 50" fill="none" xmlns="http://www.w3.org/2000/svg">
<g clip-path="url(#clip0_2_2028)">
<path fill-rule="evenodd" clip-rule="evenodd" d="M41.3759 14.7478C35.8363 14.7478 31.3472 19.1561 31.3472 24.5959C31.3472 30.0357 35.8384 34.444 41.3759 34.444C46.9133 34.444 51.4045 30.0337 51.4045 24.5959C51.4045 19.1581 46.9133 14.7478 41.3759 14.7478Z" fill="#00F970"/>
<path fill-rule="evenodd" clip-rule="evenodd" d="M12.7912 25C12.7912 18.1835 18.5168 12.5609 25.4582 12.5609H42.0003V0H25.4582C11.4575 0 0 11.2492 0 25C0 38.7508 11.4575 50 25.4582 50H42.0003V37.4391H25.4582C18.5168 37.4391 12.7912 31.8165 12.7912 25Z" fill="white"/>
<path d="M131.053 33.8005V36.6351H125.174V35.8533C125.174 24.2935 125.182 12.7336 125.155 1.17375C125.155 0.4123 125.389 0.235643 126.113 0.26407C127.463 0.316864 128.817 0.278284 130.17 0.280315C130.432 0.280315 130.697 0.30265 131.017 0.318895V15.8485C131.265 15.6515 131.412 15.554 131.536 15.4342C136.671 10.4635 145.39 11.7407 148.852 17.9724C151.831 23.3371 150.791 30.4277 146.445 34.3792C143 37.5123 137.893 38.3509 134.009 36.3001C133.046 35.7904 132.285 34.9112 131.433 34.1984C131.332 34.1132 131.249 34.0076 131.05 33.7984L131.053 33.8005ZM131.21 24.8783C131.15 26.7525 131.714 28.519 133.234 29.8571C135.391 31.7537 137.901 32.1984 140.56 31.0958C143.265 29.9749 144.371 27.7291 144.423 24.9696C144.464 22.7767 143.794 20.7969 141.921 19.4445C139.708 17.8485 137.274 17.6759 134.83 18.8597C132.372 20.0496 131.249 22.1167 131.21 24.8803V24.8783Z" fill="white"/>
<path d="M173.69 15.1072V13.0097H179.533V36.5599H173.706V33.9384C172.488 35.6461 170.942 36.5111 169.151 36.9782C162.565 38.7 156.083 34.7222 154.724 27.9605C153.736 23.0426 154.728 18.5246 158.715 15.1052C162.143 12.165 166.19 11.6187 170.439 13.1274C171.612 13.5437 172.608 14.4331 173.69 15.1052V15.1072ZM166.982 18.2728C163.221 18.2728 160.477 21.0059 160.458 24.7624C160.439 28.5737 163.25 31.4734 166.965 31.4795C170.72 31.4835 173.524 28.6408 173.518 24.8355C173.512 20.88 170.913 18.2728 166.982 18.2749V18.2728Z" fill="white"/>
<path d="M112.066 15.2209V13.0219H117.912C117.926 13.3224 117.953 13.6026 117.953 13.8828C117.955 21.144 117.955 28.4052 117.953 35.6664C117.953 36.2919 117.631 36.6052 116.988 36.6066C115.635 36.6066 114.281 36.566 112.931 36.6228C112.192 36.6553 111.977 36.3974 112.048 35.7192C112.099 35.2238 112.058 34.7182 112.058 34.0623C111.611 34.5334 111.305 34.9233 110.933 35.238C109.047 36.8299 106.8 37.3762 104.37 37.3416C98.233 37.2543 93.227 32.7668 92.8093 26.0072C92.5529 21.8608 93.6426 18.1145 96.8807 15.2717C100.282 12.2848 104.273 11.6878 108.578 13.0036C109.912 13.4117 111.035 14.1955 111.905 15.3042C111.959 15.2778 112.013 15.2494 112.066 15.223V15.2209ZM111.882 24.8457C111.878 20.878 109.293 18.2688 105.369 18.2708C101.568 18.2708 98.8368 21.012 98.8389 24.8193C98.8389 28.6266 101.655 31.4835 105.398 31.4754C109.103 31.4693 111.886 28.6225 111.882 24.8437V24.8457Z" fill="white"/>
<path d="M88.895 22.8435C86.941 22.8435 85.0511 22.8617 83.1632 22.8171C82.9606 22.813 82.6918 22.4638 82.5842 22.2181C81.1864 19.0809 77.7684 17.5864 74.5241 18.7133C71.7843 19.6677 70.0557 22.4008 70.2935 25.404C70.5333 28.4437 72.568 30.7565 75.4773 31.2966C78.1572 31.7961 80.7894 30.6468 82.1541 28.3422C82.3981 27.932 82.6566 27.7756 83.1384 27.7838C84.9766 27.8102 86.8149 27.7939 88.7027 27.7939C88.6738 28.0457 88.6717 28.2102 88.6324 28.3665C87.4683 32.984 83.1901 36.6065 78.3681 37.2908C70.157 38.4583 63.7532 32.1738 64.2329 24.0983C64.5803 18.2605 68.6124 13.6695 74.3856 12.5832C81.4635 11.2511 87.9025 16.0391 88.895 22.8414V22.8435Z" fill="white"/>
<path d="M192.002 36.6593H186.22V13.1294H191.971V15.629C192.182 15.4767 192.306 15.4178 192.386 15.3244C194.897 12.4431 198.079 11.8136 201.664 12.7537C205.178 13.6756 207.07 16.0879 207.752 19.4911C207.907 20.2667 207.981 21.0708 207.986 21.8627C208.006 26.5675 207.996 31.2723 207.994 35.977C207.994 36.1882 207.965 36.3994 207.946 36.6491H202.152V35.8004C202.152 31.6499 202.154 27.5015 202.148 23.3511C202.148 22.8943 202.13 22.4333 202.066 21.9805C201.766 19.8078 200.519 18.4189 198.546 18.0291C196.065 17.5397 193.766 18.3194 192.773 20.1977C192.316 21.0627 192.051 22.1186 192.033 23.0932C191.954 27.3147 192 31.5362 192 35.7577V36.6572L192.002 36.6593Z" fill="white"/>
</g>
<defs>
<clipPath id="clip0_2_2028">
<rect width="208" height="50" fill="white"/>
</clipPath>
</defs>
</svg>
